Coordinates
version=1
nRows=17
nColumns=40
inDegrees=yes

Units are S.I. units (second, meters, Newtons, ...)
If the header above contains a line with 'inDegrees', this indicates whether rotational values are in degrees (yes) or radians (no).

endheader
time	pelvis_tilt	pelvis_list	pelvis_rotation	pelvis_tx	pelvis_ty	pelvis_tz	hip_flexion_r	hip_adduction_r	hip_rotation_r	knee_angle_r	knee_angle_r_beta	ankle_angle_r	subtalar_angle_r	mtp_angle_r	hip_flexion_l	hip_adduction_l	hip_rotation_l	knee_angle_l	knee_angle_l_beta	ankle_angle_l	subtalar_angle_l	mtp_angle_l	lumbar_extension	lumbar_bending	lumbar_rotation	arm_flex_r	arm_add_r	arm_rot_r	elbow_flex_r	pro_sup_r	wrist_flex_r	wrist_dev_r	arm_flex_l	arm_add_l	arm_rot_l	elbow_flex_l	pro_sup_l	wrist_flex_l	wrist_dev_l
      2.00000000	     -3.91371890	      3.39210529	      3.12954315	     -0.29217742	      0.99626703	     -0.73315913	     10.59796945	      0.39482087	     -8.02592767	     18.03317217	      0.31473823	     -5.03498266	      0.00000000	      0.00000000	     23.55030371	     -5.13239421	     -3.17676811	     91.80656122	      1.60232677	     -5.94112787	      0.00000000	      0.00000000	     -5.42277528	      3.08487201	     -4.12172562	     86.98104991	     -5.06948677	     30.85396794	     29.77664966	     73.97088430	      0.00000000	      0.00000000	     84.02656486	    -13.30932021	     33.87395997	     34.80290042	     77.45730622	      0.00000000	      0.00000000
      2.00500000	     -3.99887501	      3.35567294	      3.15920394	     -0.29240320	      0.99603027	     -0.73323952	     10.79425184	      0.39658553	     -8.10321848	     18.24375946	      0.31841367	     -4.90689208	      0.00000000	      0.00000000	     23.55804588	     -5.17663744	     -3.16952747	     91.80730437	      1.60233974	     -5.91575201	      0.00000000	      0.00000000	     -5.39674335	      3.12886477	     -4.10131434	     86.99394587	     -5.13549036	     30.65090673	     29.88836927	     74.35435029	      0.00000000	      0.00000000	     84.08460767	    -13.22567153	     33.74285157	     34.69353357	     79.04184881	      0.00000000	      0.00000000
      2.01000000	     -4.02943596	      3.24950389	      3.20941373	     -0.29257450	      0.99582217	     -0.73336274	     10.84001325	      0.50039034	     -8.09436594	     18.22878616	      0.31815234	     -4.88972149	      0.00000000	      0.00000000	     23.52467453	     -5.27043419	     -3.04390516	     91.95737583	      1.60495898	     -5.95522929	      0.00000000	      0.00000000	     -5.40493362	      3.27835489	     -4.12076492	     87.10349766	     -5.08827484	     31.02984631	     29.74621940	     71.89783128	      0.00000000	      0.00000000	     84.02594594	    -13.07381101	     33.60331211	     34.69997702	     76.04221403	      0.00000000	      0.00000000
      2.01500000	     -4.15783261	      3.29093314	      3.24860117	     -0.29284715	      0.99557404	     -0.73347678	     11.04547513	      0.42400816	     -8.07424810	     18.33973538	      0.32008877	     -4.81383657	      0.00000000	      0.00000000	     23.55626805	     -5.23649362	     -3.10693715	     91.75076306	      1.60135291	     -5.77713331	      0.00000000	      0.00000000	     -5.33048759	      3.24063923	     -4.15145426	     87.19840379	     -5.26097129	     31.66252434	     29.88793837	     71.39777580	      0.00000000	      0.00000000	     84.10181421	    -13.17992188	     34.23615213	     34.74035001	     75.41251512	      0.00000000	      0.00000000
      2.02000000	     -4.20951325	      3.34090668	      3.30826754	     -0.29308595	      0.99534852	     -0.73371204	     11.23226095	      0.29581885	     -8.32921609	     18.62932264	      0.32514302	     -4.58425735	      0.00000000	      0.00000000	     23.54043184	     -5.11896145	     -3.02146705	     91.92994036	      1.60448014	     -6.01181200	      0.00000000	      0.00000000	     -5.35240535	      3.20570426	     -4.16233453	     87.21208098	     -5.30903886	     30.99460325	     29.92437456	     74.15755585	      0.00000000	      0.00000000	     84.21443254	    -13.13701150	     34.05324795	     34.58713227	     79.18901823	      0.00000000	      0.00000000
      2.02500000	     -4.25277230	      3.29289725	      3.32096061	     -0.29321818	      0.99511494	     -0.73368401	     11.33712712	      0.34086163	     -8.28960214	     18.73178236	      0.32693128	     -4.53584497	      0.00000000	      0.00000000	     23.48368045	     -5.21774601	     -3.07781790	     91.81249172	      1.60243027	     -5.93397206	      0.00000000	      0.00000000	     -5.35721551	      3.26763227	     -4.17360699	     87.28999303	     -5.30173936	     30.96092299	     29.86239958	     74.81660892	      0.00000000	      0.00000000	     84.17932720	    -13.12066057	     33.80048216	     34.66441044	     79.28412550	      0.00000000	      0.00000000
      2.03000000	     -4.37564829	      3.29866543	      3.41906003	     -0.29355481	      0.99484475	     -0.73386086	     11.55899962	      0.28621936	     -8.38285436	     18.89654081	      0.32980685	     -4.45061219	      0.00000000	      0.00000000	     23.56280481	     -5.15311964	     -2.94671973	     91.91899900	      1.60428918	     -6.01707803	      0.00000000	      0.00000000	     -5.29208362	      3.26445187	     -4.24236224	     87.36917195	     -5.44917961	     30.89559753	     29.83656723	     75.84430865	      0.00000000	      0.00000000	     84.24675353	    -13.08118094	     33.94826424	     34.61417950	     79.12788801	      0.00000000	      0.00000000
      2.03500000	     -4.43819253	      3.23976991	      3.47021973	     -0.29368487	      0.99456820	     -0.73390799	     11.68100476	      0.32557478	     -8.45647087	     18.99286680	      0.33148806	     -4.40211431	      0.00000000	      0.00000000	     23.54933165	     -5.22823322	     -2.91372936	     91.94540766	      1.60475010	     -6.03794995	      0.00000000	      0.00000000	     -5.27516140	      3.33325333	     -4.26709861	     87.37945964	     -5.43167336	     30.80816610	     29.85689029	     75.29650939	      0.00000000	      0.00000000	     84.33151625	    -13.15725915	     34.45799672	     34.66919143	     78.52128423	      0.00000000	      0.00000000
      2.04000000	     -4.56927182	      3.34958744	      3.48439334	     -0.29401060	      0.99430038	     -0.73397431	     11.91391689	      0.18562360	     -8.36002476	     19.16235019	      0.33444610	     -4.33825140	      0.00000000	      0.00000000	     23.57671305	     -5.10059774	     -2.97076752	     91.92825400	      1.60445071	     -5.96127527	      0.00000000	      0.00000000	     -5.21870263	      3.22520543	     -4.29457104	     87.40580662	     -5.28679747	     30.86314887	     29.86268698	     74.50172577	      0.00000000	      0.00000000	     84.31574381	    -13.12986246	     34.17345644	     34.67953601	     78.87458357	      0.00000000	      0.00000000
      2.04500000	     -4.61637823	      3.31797021	      3.52836907	     -0.29418870	      0.99405127	     -0.73406390	     12.01984642	      0.19653828	     -8.39066012	     19.24448792	      0.33587968	     -4.32676305	      0.00000000	      0.00000000	     23.53924206	     -5.12982421	     -2.93561134	     91.91093254	      1.60414839	     -6.00258596	      0.00000000	      0.00000000	     -5.21259419	      3.27508663	     -4.33860979	     87.41219609	     -5.32734671	     31.45994591	     29.94560338	     74.46984307	      0.00000000	      0.00000000	     84.28064756	    -13.12895857	     34.02243012	     34.72705375	     79.22007486	      0.00000000	      0.00000000
      2.05000000	     -4.66898217	      3.28308057	      3.58188850	     -0.29435038	      0.99377776	     -0.73411600	     12.11467140	      0.21751085	     -8.35246552	     19.30975222	      0.33701875	     -4.28233684	      0.00000000	      0.00000000	     23.50945136	     -5.15732997	     -2.89421166	     91.92943235	      1.60447127	     -5.97916388	      0.00000000	      0.00000000	     -5.20672833	      3.30108711	     -4.32408121	     87.53741211	     -5.44737615	     30.76611949	     29.77868806	     75.54216764	      0.00000000	      0.00000000	     84.35958678	    -13.06957901	     34.24551655	     34.70906933	     79.15682992	      0.00000000	      0.00000000
      2.05500000	     -4.72188483	      3.23371238	      3.61676964	     -0.29456777	      0.99362176	     -0.73416518	     12.41800298	      0.19993731	     -8.67604563	     19.77022721	      0.34505556	     -4.56660677	      0.00000000	      0.00000000	     23.47508504	     -5.24186099	     -2.94573472	     91.79195453	      1.60207183	     -5.90985226	      0.00000000	      0.00000000	     -5.21894489	      3.36022430	     -4.34731655	     87.57091945	     -5.46338253	     30.76418861	     29.84883609	     75.80147161	      0.00000000	      0.00000000	     84.38198817	    -13.06969654	     34.30779859	     34.71226452	     78.89244399	      0.00000000	      0.00000000
      2.06000000	     -4.77282291	      3.26880808	      3.65736105	     -0.29476917	      0.99335045	     -0.73430671	     12.56769105	      0.13137589	     -8.71926113	     19.95535634	      0.34828667	     -4.51990787	      0.00000000	      0.00000000	     23.43825713	     -5.18345004	     -2.89076110	     91.89889222	      1.60393825	     -6.07057798	      0.00000000	      0.00000000	     -5.23294478	      3.33815754	     -4.39500393	     87.68768204	     -5.49624574	     31.51650486	     29.89524863	     72.84853736	      0.00000000	      0.00000000	     84.47182960	    -13.19314809	     35.16563833	     34.86350767	     75.47878048	      0.00000000	      0.00000000
      2.06500000	     -4.85351505	      3.26843209	      3.72452935	     -0.29496565	      0.99308022	     -0.73438658	     12.70611714	      0.11560403	     -8.76679915	     20.04753543	      0.34989550	     -4.48378907	      0.00000000	      0.00000000	     23.43956614	     -5.17667839	     -2.86744390	     91.88910264	      1.60376739	     -6.03089431	      0.00000000	      0.00000000	     -5.19791509	      3.33704722	     -4.45282797	     87.68710695	     -5.39457141	     30.57824149	     29.72309380	     75.67464570	      0.00000000	      0.00000000	     84.46061984	    -13.09893101	     34.47428348	     34.71253826	     78.93083517	      0.00000000	      0.00000000
      2.07000000	     -4.86499153	      3.28225550	      3.79840910	     -0.29516267	      0.99286178	     -0.73450054	     12.79499055	      0.07550204	     -8.83274019	     20.20399983	      0.35262632	     -4.44695982	      0.00000000	      0.00000000	     23.36425756	     -5.14749755	     -2.82774162	     91.86460673	      1.60333985	     -6.16160827	      0.00000000	      0.00000000	     -5.23459686	      3.32545031	     -4.56270839	     87.61697491	     -5.32856332	     30.87200762	     29.81681879	     75.13304927	      0.00000000	      0.00000000	     84.54880182	    -13.19460491	     34.82342315	     34.68674005	     78.69026300	      0.00000000	      0.00000000
      2.07500000	     -4.92206219	      3.26855141	      3.83555363	     -0.29535194	      0.99257024	     -0.73456898	     12.91691519	      0.08148009	     -8.81529369	     20.31830715	      0.35462136	     -4.36694314	      0.00000000	      0.00000000	     23.33438549	     -5.14408035	     -2.79794129	     91.88632421	      1.60371890	     -6.03278546	      0.00000000	      0.00000000	     -5.24067724	      3.34991224	     -4.55211248	     87.72894561	     -5.41026747	     30.96647127	     29.80239058	     75.43810952	      0.00000000	      0.00000000	     84.50853851	    -13.13707734	     34.58612466	     34.80638301	     78.97667742	      0.00000000	      0.00000000
      2.08000000	     -4.96495372	      3.26274448	      3.87285836	     -0.29551007	      0.99229700	     -0.73462359	     13.01475974	      0.07895990	     -8.78266693	     20.40625563	      0.35615635	     -4.27415880	      0.00000000	      0.00000000	     23.28244720	     -5.16779565	     -2.81147244	     91.87519542	      1.60352466	     -6.08976969	      0.00000000	      0.00000000	     -5.24759860	      3.35396458	     -4.56075730	     87.84951463	     -5.51773604	     31.36483205	     29.82530492	     73.20205296	      0.00000000	      0.00000000	     84.56406562	    -13.18329435	     35.22150036	     34.90783448	     76.03754531	      0.00000000	      0.00000000
